<?xml version="1.0" standalone="no"?>
<!DOCTYPE svg PUBLIC "-//W3C//DTD SVG 20010904//EN"
 "http://www.w3.org/TR/2001/REC-SVG-20010904/DTD/svg10.dtd">
<svg version="1.0" xmlns="http://www.w3.org/2000/svg"
 width="500" height="500" viewBox="0 0 200.000000 200.000000"
 preserveAspectRatio="xMidYMid meet">

<g transform="translate(0.000000,200.000000) scale(0.100000,-0.100000)"
fill="#000000" stroke="none">
<path d="M1428 1493 c6 -2 18 -2 25 0 6 3 1 5 -13 5 -14 0 -19 -2 -12 -5z"/>
<path d="M1317 1431 c-34 -32 -69 -61 -77 -64 -13 -5 -13 -6 0 -6 9 -1 38 22
65 50 28 28 64 57 80 65 20 9 24 13 12 14 -10 0 -46 -26 -80 -59z"/>
<path d="M1415 1424 c-33 -35 -62 -66 -65 -70 -2 -3 2 -9 9 -14 10 -6 0 -16
-40 -39 -30 -16 -72 -48 -93 -70 -31 -32 -43 -38 -53 -29 -11 8 -20 5 -41 -15
-22 -21 -31 -24 -40 -15 -9 9 -5 19 17 43 l30 30 -21 25 -20 25 15 -26 c15
-25 15 -28 -13 -54 -16 -15 -27 -32 -25 -39 7 -17 -74 -68 -117 -72 -21 -3
-38 -1 -38 3 0 4 -16 19 -35 32 -19 13 -32 27 -30 32 3 4 -1 24 -9 42 -10 25
-24 38 -48 46 -29 10 -33 15 -32 44 1 19 4 39 8 45 18 30 -17 7 -53 -34 -153
-174 -142 -426 25 -584 79 -74 148 -103 260 -108 130 -6 215 23 306 106 l37
33 -33 30 c-35 30 -91 40 -113 18 -8 -8 -15 -3 -25 18 -7 15 -23 32 -35 38
-12 5 -24 18 -27 30 -2 11 -9 37 -14 57 -8 32 -7 42 14 70 13 17 45 51 72 74
l47 42 31 -19 31 -19 23 25 c16 17 26 44 31 81 7 53 13 62 70 120 56 57 62 67
67 113 2 28 1 50 -4 50 -5 -1 -36 -30 -69 -65z m-235 -239 c11 -13 9 -20 -14
-44 -14 -15 -23 -30 -20 -34 8 -8 -43 -59 -76 -77 -27 -15 -47 -7 -45 17 1 24
64 115 74 109 5 -3 19 6 31 19 27 29 33 30 50 10z m-378 -132 c29 -20 55 -38
57 -40 3 -2 0 -8 -6 -14 -8 -8 -23 -2 -53 20 -24 17 -46 31 -50 31 -3 0 -20
-20 -38 -45 l-31 -44 30 -22 c16 -11 36 -18 44 -15 17 6 21 36 5 36 -5 0 -10
5 -10 11 0 16 42 6 53 -13 8 -12 4 -25 -18 -54 -25 -33 -30 -35 -40 -20 -7 9
-16 16 -20 16 -14 0 -75 50 -75 62 0 18 83 127 97 128 2 0 27 -17 55 -37z
m100 -123 c-12 -16 -22 -31 -22 -33 0 -2 25 0 55 6 61 10 101 3 75 -13 -8 -6
-30 -10 -49 -10 l-34 0 22 -24 23 -25 -22 -35 c-12 -20 -25 -36 -30 -36 -20 0
-20 22 -1 47 l21 26 -36 24 c-34 24 -36 24 -49 6 -8 -10 -15 -21 -15 -25 0
-10 -27 -10 -33 0 -3 4 17 38 45 76 36 49 53 65 61 57 8 -8 5 -19 -11 -41z
m219 -102 c24 -18 47 -37 51 -42 8 -11 -18 -59 -44 -83 -15 -14 -20 -14 -34
-2 -16 13 -17 11 -10 -26 7 -40 7 -40 -12 -20 -18 19 -40 105 -26 105 3 0 17
-9 31 -20 l25 -20 21 27 21 26 -30 23 c-16 13 -32 24 -36 24 -7 0 -59 -66 -78
-100 -7 -12 -11 -12 -21 -3 -9 10 -5 23 22 62 19 28 39 51 46 51 7 0 10 7 7
15 -10 25 19 17 67 -17z"/>
<path d="M961 1398 c0 -9 -9 -19 -18 -21 -16 -4 -16 -5 -1 -6 9 0 19 -9 21
-18 4 -16 5 -16 6 -1 0 9 9 19 19 21 15 4 15 5 0 6 -9 0 -19 9 -21 19 -4 15
-5 15 -6 0z"/>
<path d="M1122 1333 c-15 -16 -18 -20 -6 -10 12 10 34 22 50 27 25 7 26 8 7 9
-13 1 -35 -11 -51 -26z"/>
</g>
</svg>
