<svg xmlns="http://www.w3.org/2000/svg" viewBox="0 0 1440 320"><path fill="#E6E6E6" fill-opacity="1" d="M0,128L6.3,128C12.6,128,25,128,38,128C50.5,128,63,128,76,112C88.4,96,101,64,114,58.7C126.3,53,139,75,152,90.7C164.2,107,177,117,189,122.7C202.1,128,215,128,227,138.7C240,149,253,171,265,197.3C277.9,224,291,256,303,272C315.8,288,328,288,341,272C353.7,256,366,224,379,186.7C391.6,149,404,107,417,112C429.5,117,442,171,455,208C467.4,245,480,267,493,250.7C505.3,235,518,181,531,149.3C543.2,117,556,107,568,128C581.1,149,594,203,606,186.7C618.9,171,632,85,644,53.3C656.8,21,669,43,682,90.7C694.7,139,707,213,720,240C732.6,267,745,245,758,229.3C770.5,213,783,203,796,170.7C808.4,139,821,85,834,74.7C846.3,64,859,96,872,117.3C884.2,139,897,149,909,144C922.1,139,935,117,947,133.3C960,149,973,203,985,208C997.9,213,1011,171,1023,133.3C1035.8,96,1048,64,1061,90.7C1073.7,117,1086,203,1099,208C1111.6,213,1124,139,1137,90.7C1149.5,43,1162,21,1175,58.7C1187.4,96,1200,192,1213,202.7C1225.3,213,1238,139,1251,128C1263.2,117,1276,171,1288,181.3C1301.1,192,1314,160,1326,138.7C1338.9,117,1352,107,1364,112C1376.8,117,1389,139,1402,160C1414.7,181,1427,203,1434,213.3L1440,224L1440,320L1433.7,320C1427.4,320,1415,320,1402,320C1389.5,320,1377,320,1364,320C1351.6,320,1339,320,1326,320C1313.7,320,1301,320,1288,320C1275.8,320,1263,320,1251,320C1237.9,320,1225,320,1213,320C1200,320,1187,320,1175,320C1162.1,320,1149,320,1137,320C1124.2,320,1112,320,1099,320C1086.3,320,1074,320,1061,320C1048.4,320,1036,320,1023,320C1010.5,320,998,320,985,320C972.6,320,960,320,947,320C934.7,320,922,320,909,320C896.8,320,884,320,872,320C858.9,320,846,320,834,320C821.1,320,808,320,796,320C783.2,320,771,320,758,320C745.3,320,733,320,720,320C707.4,320,695,320,682,320C669.5,320,657,320,644,320C631.6,320,619,320,606,320C593.7,320,581,320,568,320C555.8,320,543,320,531,320C517.9,320,505,320,493,320C480,320,467,320,455,320C442.1,320,429,320,417,320C404.2,320,392,320,379,320C366.3,320,354,320,341,320C328.4,320,316,320,303,320C290.5,320,278,320,265,320C252.6,320,240,320,227,320C214.7,320,202,320,189,320C176.8,320,164,320,152,320C138.9,320,126,320,114,320C101.1,320,88,320,76,320C63.2,320,51,320,38,320C25.3,320,13,320,6,320L0,320Z"></path></svg>